<?xml version="1.0" encoding="UTF-8"?>
<svg version="1.1" viewBox="0 0 2048 1152" width="1280" height="1280" xmlns="http://www.w3.org/2000/svg">
<path transform="translate(0)" d="m0 0h2048v1152h-2048z"/>
<path transform="translate(1076,256)" d="m0 0h3l3 7 34 51-4 4-29 15-18 10-3 2 20 3 16 6 13 8 7 4 1-13 2-7 9-6 8-4 50-1 10-4 7-4h64l6 36 8 50v3l14-8 10-4h4v-2l11-2h9v-48l17-9h3v2l9 1 78 17 6 1 2 8 6-2 5-3h3v2l8 1 66 16 3 1v7h-2l-2 9-14 43-46 138-10 31-2 6-16 8-7-1-51-16-3-2-1-22-55-8-1-1 1-15 2-14-11 4-13 2 3 16v5l-16 9-11-1-75-13-2-1-3-21-11 6-3-1-7-13v-2l-14 7-16-2-39-6-19-3-3-1 2-16 3-15-21 10-17 4v57l-8 5-7 4-7-1-19-9-19-10-42-20-19-10-18-9v41l-19 10-61 9h-5l-1-1-2-23-15 10-14 7-15 4h-23l-14-4-10-5-8-6-9-9-3-4v8l9 34v4h2v3l-16 10-10 4-35 11-24 8-5-1-9-20-14-32-15-34-16-36-19-43h-3l-13 6-3-1-4-10-5-5-6-11-11-19-10-16-6-11-2-3v-5l6-5 7-8 10-5 14-9 23-12 25-10 20-6 19-4 17-2h26l25 4 16 6 5 2v2l5 2 10 7 9 8 10 14 5 11 3 11 1 7v12l-1 11 16-9 12-4 3-2 7-1h20l-1-9-16 4-1-2-2-44v-5l9-6 9-5 14-3 52-17 22-7h3v-2l5 1v7l14-8 6-2 5 6 6 4 12 12 6 4 5 5 16 15 9 7 6-4 4-4-6-8-5-6 2-5 11-10 7-8 11-13 6-7 3-5 8-10h2v-2h2l2-4 10-11 7-8 15-8z" fill="#3365AB"/>
<path transform="translate(878,643)" d="m0 0h29l16 3 1 1 10 2 15 6 10 5v2l5 1v2l4 1 9 6 21 21v3h2l1 3 2 1 2 4-1 4-19 19-1 3 33-1 9-19 3-5h2v-3h2l2-5 7-8 15-15h2v-2l4-1v-2l7-4h2v-2l7-2v-2l11-5 14-5 17-4 9-1h25l19 3 11 3 9 4 10 4 11 7 3 1v2l5 2 14 12 11 12 3 4v2h2v3h2l3 6v2h2l9 19 5 17 3 19v25l-3 19-4 14-7 15-9 16-13 16-8 8h-2v2l-4 3h-2v2l-17 11-15 7-19 6-20 3h-22l-16-2v-2h-8l-15-5-14-7-5-2v-2l-5-2-11-8-12-11-7-8-3-3-8-12v-2h-2l-7-14v-4l-3 3-8 16-8 12-13 15-10 9-15 10-16 8-15 6-17 4-7 1h-31l-21-4-17-6-17-9-16-11-13-13-6-7v-2l-3-1v-3h-2v-3h-2v-3h-2l-6-11-4-10-5-12-2-7-1-8-1-1-1-7v-34l1-7 2-5 2-11 3-8 7-16 1-2h2l1-5h2l2-5 2-4h2l1-4 19-19 9-7h2v-2h3v-2l26-13 15-4 12-3z" fill="#BDC4CD"/>
<path transform="translate(885,656)" d="m0 0h13l21 3 16 5 17 8 13 9 13 11 10 11-1 4-8 7-13 13-4 5-7 6-2 3h-2v2h57l4 17 1 10v15l-3 21-7 21-8 15-8 11-9 10-9 9-14 10-16 8-14 5-13 3-6 1h-29l-20-4-16-6-15-8-13-10-11-10-11-14-9-15-6-15-4-14-2-14v-23l3-18 6-18 9-17 9-12 9-10 10-9 13-9 16-8 15-5 15-3z" fill="#BDC4CD"/>
<path transform="translate(651,352)" d="m0 0h15l22 3 13 4 14 8 11 9 9 12 4 8 2 7 1 14-2 13-4 12-8 15-9 12-11 12-10 9-13 9 1 8 21 81-3 3-31 10h-5l-39-87-30-67-8-18-5 1-12 6-4-1-16-27-10-17 1-4 18-10 17-8 19-7 21-6 18-3z" fill="#FDC904"/>
<path transform="translate(878,643)" d="m0 0h29l16 3 1 1 10 2 15 6 10 5v2l5 1v2l4 1 9 6 21 21v3h2l1 3 2 1 2 4-1 4-19 19-1 3 33-1 9-19 3-5h2v-3h2l2-5 7-8 15-15h2v-2l4-1v-2l7-4h2v-2l7-2v-2l11-5 14-5 17-4 9-1h25l19 3 11 3 9 4 10 4 11 7 3 1v2l5 2 14 12 11 12 3 4v2h2v3h2l3 6v2h2l9 19 5 17 3 19v25l-3 19-4 14-7 15-9 16-13 16-8 8h-2v2l-4 3h-2v2l-17 11-15 7-19 6-20 3h-22l-16-2v-2h-8l-15-5-14-7-5-2v-2l-5-2-11-8-12-11-7-8-3-3-8-12v-2h-2l-7-14v-4l-3 3-8 16-8 12-13 15-10 9-15 10-16 8-15 6-17 4-7 1h-31l-21-4-17-6-17-9-16-11-13-13-6-7v-2l-3-1v-3h-2v-3h-2v-3h-2l-6-11-4-10-5-12-2-7-1-8-1-1-1-7v-34l1-7 2-5 2-11 3-8 7-16 1-2h2l1-5h2l2-5 2-4h2l1-4 19-19 9-7h2v-2h3v-2l26-13 15-4 12-3zm7 13-21 3-17 5-16 8-11 7-13 11-8 8-11 15-9 17-6 18-3 18v23l3 18 7 21 10 18 9 11 10 11 14 11 16 9 15 6 16 4 7 1h29l16-3 15-5 16-8 12-8 12-11 8-8 10-14 8-15 7-21 3-21v-15l-2-15-3-12h-57v-2l3-1 6-7 5-5 5-4 7-8 11-11-2-4-12-13-17-13-19-10-15-5-15-3-10-1zm252 0-17 2-16 4-17 7-16 10-11 9-10 10-11 15-9 17-6 19-2 12-1 11v12l2 17 4 16 7 17 8 13 11 14 8 8 13 10 14 8 14 6 19 5 7 1h28l20-4 19-7 14-8 14-11 13-13 10-14 8-16 5-14 3-13 1-6v-30l-4-20-6-16-10-18-9-11-7-8-11-9-10-7-15-8-21-7-11-2-11-1z" fill="#0C2550"/>
<path transform="translate(1366,366)" d="m0 0 14 2 44 9 3 1 3 12 17 80 1 3 18-75 3-9 11 1 35 8-1 7-19 57-14 43-18 54-12 37-5 1-21-6-8-3-2-65-1-45-1-1-14 79-1 4-13-1-20-3-3-2 2-24 1-3 7-6 8-10 7-12 6-17 1-6v-21l-3-13-7-14-9-10 2-25v-7l-12-3v-13z" fill="#FDC904"/>
<path transform="translate(887,346)" d="m0 0 4 1 3 51 1 4 12-16 11-16 13-18 4-6 4 1 15 15 8 7 12 12 3 2-1 4-8 8-7 8-11 11-7 8-11 11-7 8-3 3v2l30 12 22 9 8 11 9 10 13 9 14 6 16 4 5 2v37l-5-1-130-65h-3v70l-16 3-14 2h-6l-2-17v-15l6-13 4-15v-23l-3-12-4-10-7-10-4-5-2-16-3-36v-9l-11 3h-5l-1-1v-13l10-4z" fill="#FCC904"/>
<path transform="translate(1223,344)" d="m0 0h31l2 6 12 78-2 5-7 10-6 12-4 13-1 5v20l3 12 4 10 7 10 9 9 11 7 3 1 2 9-1 3-41-6-5-1-3-17-9-59v-5h-2l-1 5-14 36h-3l-13-28-11-24-2-1-1 12-8 50-1 2-12-1-28-5-4-2 6-36 12-12 6-7-1-3-8-7-3-3 1-11 12-71 2-6h44l3 13 7 38v6h2l2-15 9-50z" fill="#FDC904"/>
<path transform="translate(1129,665)" d="m0 0h27l19 4 16 6 14 8 10 8 10 9 10 12 8 14 5 10 5 16 2 12v28l-1 8-4 1-43-7-13-2v-25l-5-14-7-10-10-9-13-6-8-2h-18l-13 4-10 6-7 6-5 7-2 3-5 13-2 17-39-1-21-1v-13l3-17 5-15 8-16 10-14 15-15 14-10 19-9 19-5z" fill="#0A234E"/>
<path transform="translate(974,784)" d="m0 0h30v9l-4 18-6 16-6 11-9 12-11 12-10 8-13 8-13 6-17 5-12 2h-23l-17-3-15-5-16-8-11-8-10-9-7-7-10-14-9-19-4-13 1-2 12-1 37-6 10-1 8 14 8 9 11 7 12 4 7 1 16-1 11-4 10-6 5-4 8-11 1-3h-50v-11l15-2 46-3z" fill="#0C4DA0"/>
<path transform="translate(1029,784)" d="m0 0h32l29 1 3 12 6 11 9 10 11 7 12 4 7 1 16-1 13-5 11-7 9-11 6-11 35 5 24 4-1 7-4 11-7 14-7 10-9 11-12 11-16 10-13 6-17 5-12 2h-23l-17-3-18-6-18-10-13-11-10-10-10-14-8-15-5-15-3-16z" fill="#14336D"/>
<path transform="translate(878,665)" d="m0 0h27l16 3 19 7 14 8 14 11 9 9-2 4-39 39h-3l-7-8-9-6-12-5-5-1h-17l-12 3-12 7-6 5-7 10-4 8-3 14v11l1 8-51 8-9 1-2-16v-15l3-19 6-18 7-14 8-11 9-10 8-8 13-9 15-8 19-6z" fill="#0A234E"/>
<path transform="translate(1054,363)" d="m0 0h10l16 3 12 5 11 7 8 8-1 4-28 30-15 16-11 12h9l13-4 8-5 10-9 4 1 8 8 8 7 10 9-2 4-7 7-10 7-17 9-19 6-10 2h-24l-16-4-12-6-10-8-8-10-5-11-3-14v-15l4-16 6-11 9-10 8-7 14-8 16-5z" fill="#FCC804"/>
<path transform="translate(800,430)" d="m0 0h15l12 3 12 6 6 5 8 11 4 10 2 9v15l-4 15-7 14-7 9-7 8-10 7-14 7-11 3-15 1-15-3-13-7-10-10-7-14-2-7-1-14 3-16 5-12 7-11 9-10 12-9 12-6z" fill="#FCC904"/>
<path transform="translate(1321,417)" d="m0 0h20l13 4 10 7 7 7 7 14 2 8v16l-4 15-7 13-12 14-11 8-12 6-11 3h-22l-14-5-8-6-9-10-5-10-2-8v-19l4-13 6-12 8-10 10-9 11-7 14-5z" fill="#FCC904"/>
<path transform="translate(974,784)" d="m0 0h30v9l-4 18-6 16-6 11-9 12-3-1-28 6-20 2-1-3 10-5 21-6 16-4 7-1v-2l-20 1-1 3-14 3h-27l-3-2 16-2 9-1v-2l-43 1 4 2v2h-13l-8-1-3-3-7-4 1-3h-49l-14-1-2-2 12-5-7-2-24-1-1 3-4-10-2-9 13-1 37-6 10-1 8 14 8 9 11 7 12 4 7 1 16-1 11-4 10-6 5-4 8-11 1-3h-50v-11l15-2 46-3z" fill="#15336D"/>
<path transform="translate(1135,733)" d="m0 0h15l12 4 9 6 8 8 6 12 2 7v16l-4 12-7 10-9 8-13 6-5 1h-13l-13-4-11-7-9-11-5-13-1-6v-9l3-12 7-12 10-9 10-5z" fill="#112952"/>
<path transform="translate(878,643)" d="m0 0h29l16 3 1 1 10 2 15 6 10 5v2l5 1v2l4 1 9 6 21 21v3h2l1 3 2 1 2 4-1 4-19 19-1 3 33-1 9-19 3-5h2v-3h2l2-5 7-8 15-15h2v-2l4-1v-2l7-4h2v-2l7-2v-2l11-5 14-5 17-4 9-1h25l19 3 11 3 9 4 10 4 11 7 3 1v2l5 2 14 12 11 12 3 4v2h2v3h2l3 6v2h2l9 19 5 17 3 19v25l-3 19-4 14-7 15-9 16-13 16-8 8h-2v2l-4 3h-2v2l-17 11-15 7-19 6-20 3h-22l-16-2v-2h-8l-15-5-14-7-5-2v-2l-5-2-11-8-12-11-7-8-3-3-8-12v-2h-2l-7-14v-4l-3 3-8 16-8 12-13 15-10 9-15 10-16 8-15 6-17 4-7 1h-31l-21-4-17-6-17-9-16-11-13-13-6-7v-2l-3-1v-3h-2v-3h-2v-3h-2l-6-11-4-10-5-12-2-7-1-8-1-1-1-7v-34l1-7 2-5 2-11 3-8 7-16 1-2h2l1-5h2l2-5 2-4h2l1-4 19-19 9-7h2v-2h3v-2l26-13 15-4 12-3zm1 4-22 4-20 7-18 10-13 10-16 16-11 16-8 15-7 21-3 16v32l4 20 7 19 9 16 9 12 9 10 12 11 14 9 15 8 18 6 15 3 11 1h15l21-3 20-6 16-8 14-9 14-12 10-11 12-18 8-17 2-9h2l2 10 8 16 7 12 11 13 11 11 18 13 21 10 17 5 21 3h16l21-3 17-5 14-6 15-9 13-11 8-7 11-14 9-14 6-13 5-14 4-21v-28l-3-17-7-21-9-17-8-11-9-11-8-8-16-12-19-10-18-6-14-3-7-1h-25l-18 3-16 5-18 8-12 8-11 9-14 14-8 11-8 14-6 13-1 7h-2v-5l-23-1h-17v-2l25-25-2-4-7-8-9-10-11-10-15-10-19-9-17-5-17-3z" fill="#4E5563"/>
<path transform="translate(717,506)" d="m0 0h3l4 17 5 12 9 13 10 9 15 8 11 3 8 1h14l21-5 19-10 9-8h3l2 22v7l61-9 5-1 1-59 19 9 22 11 17 8 42 21 19 9 16 8 4 4-14 8-7-1-19-9-19-10-42-20-19-10-18-9v41l-19 10-61 9h-5l-1-1-2-23-15 10-14 7-15 4h-23l-14-4-10-5-8-6-9-9-3-4-2 3-10-42v-5l8-3z" fill="#12316A"/>
<path transform="translate(1112,490)" d="m0 0 2 1-6 35 13 1 56 9h6l4-24 3 3 14 26 2 5h2l2-6 8-15h1l4 32 1 4 84 15 1-4v5l-16 9-11-1-75-13-2-1-3-21-11 6-3-1-7-13v-2l-14 7-16-2-39-6-19-3-3-1 2-16 3-15-21 10-17 4v57h-1v-66l7-2 21-5 16-6z" fill="#123169"/>
<path transform="translate(567,468)" d="m0 0 3 3 9 20v2l9-1 8-2 1-2 8 16 13 28 16 36 15 33 9 20v3l35-11 25-8 11-3 1-2v3l-16 10-10 4-35 11-24 8-5-1-9-20-14-32-15-34-16-36-19-43z" fill="#13316A"/>
<path transform="translate(889,751)" d="m0 0h112l2 6 2 21-1 2-68 3-41 3h-7v-34z" fill="#0C254F"/>
<path transform="translate(884,733)" d="m0 0h14l13 4 7 4v2h-38l1 66h41l-2 4-9 6-13 4h-13l-13-4-9-6-5-4-7-10-4-11-1-5v-10l3-12 6-10 7-8 9-6z" fill="#0B244F"/>
<path transform="translate(1346,540)" d="m0 0h2l-2 22-1 8 31 4 22 3 3 1 1 24 10 2 44 14 5 1 1-2-1 4-16 8-7-1-51-16-3-2-1-22-55-8-1-1 1-15 2-14-11 4-13 2 2 9v7h-1l-3-20v-4l18-1 16-4z" fill="#12316A"/>
<path transform="translate(672,406)" d="m0 0h11l10 3 6 4 6 7 3 8v15l-4 11-8 10-9 8-9 6h-2l-8-24-12-40 1-3 10-4z" fill="#3264A9"/>
<path transform="translate(917,506)" d="m0 0 19 9 22 11 17 8 42 21 19 9 16 8 4 4-14 8-7-1-19-9-19-10-42-20-19-10-16-8-3-2z" fill="#13326B"/>
<path transform="translate(1223,344)" d="m0 0h31l2 6 12 78-2 5-7 10-6 12-4 13-1 5v20l3 12 4 10 7 10 9 9 11 7 3 1 2 9-1 3-8-1-8-5-10-7-7-7-8-12-5-14-1-5v-23l4-15 8-16 8-10-6-41-7-45-24-1v-6z" fill="#C79F08"/>
<path transform="translate(651,352)" d="m0 0h15l22 3 13 4 14 8 11 9 9 12 4 8 2 7 1 14-2 13-4 12-8 15-8 11-1-2 8-15 4-12 1-6v-19l-4-13-6-10-8-9-11-8-14-7-17-4-8-1h-31l-19 3-23 6-21 8-25 12-1-3 13-8 23-11 19-7 21-6 18-3z" fill="#C79F08"/>
<path transform="translate(1041,390)" d="m0 0h16l12 6 4 5-10 11-7 8-9 10-9 11-6 7-3 1-6-5-5-8-2-6v-15l4-10 8-9 10-5z" fill="#3364A9"/>
<path transform="translate(839,795)" d="m0 0 3 1 5 10 7 9 10 8 9 4-1 3h-49l-14-1-2-2 12-5-7-2-24-1-1 3-4-10-2-9 13-1 37-6z" fill="#14336D"/>
<path transform="translate(1317,429)" d="m0 0h11l-4 3-7 6-2 5 1 9 6 7 5 2h13l8-6 4-10 2 2 1 3v14l-5 10-9 8-8 3h-16l-9-4-8-7-4-7-2-6v-8l3-9 5-7 7-5z" fill="#3565A7"/>
<path transform="translate(797,444)" d="m0 0h9l-1 2-7 4-4 6v9l4 7 8 4h11l6-3 5-6 2-8 3 3 1 3v14l-5 10-9 8-8 3h-17l-10-5-7-7-4-9-1-11 3-9 8-9 9-5z" fill="#3464A7"/>
<path transform="translate(920,444)" d="m0 0 4 3 28 11 22 9 8 11 9 10 13 9 14 6 16 4 5 2v37l-5-1-4-3v-25l-18-4-15-6-13-9-12-12-6-10-30-12-23-9v-3z" fill="#C79F08"/>
<path transform="translate(1136,739)" d="m0 0h13l12 4 10 8 4 5 4 8 2 7v4h-21l-4-8-6-5-3-1h-9l-7 3-4 5-3 6h-20l1-10 5-10 9-9 12-6z" fill="#575B64"/>
<path transform="translate(1104,781)" d="m0 0h20l4 8 5 4 4 2h10l6-3 3-1 2-4 2-6h21l-2 10-4 8-9 10-12 6-4 1h-16l-11-4-9-7-7-10-3-9z" fill="#BDC4CD"/>
<path transform="translate(1366,366)" d="m0 0 14 2 44 9 3 1 3 12 17 80 2 5-7 7-1 2h-2l-7-32-13-62v-4l-9-1-45-9z" fill="#C79F08"/>
<path transform="translate(1469,389)" d="m0 0 11 1 35 8-1 7-19 57-14 43-18 54-12 37-5 1-1-3 12-36 12-37 32-96 5-16v-2l-39-9z" fill="#C79F08"/>
<path transform="translate(1073,284)" d="m0 0 4 1 14 19 3 4-1 4-23 12-19 9-14 7-4-4 1-5 11-13 9-11 11-13z" fill="#FAC704"/>
<path transform="translate(800,430)" d="m0 0h15l12 3 12 6 6 5 8 11 4 10 2 9v15l-4 15-7 14-7 9-3 2 2-5 6-12 3-11 1-15-3-15-8-15-9-8-12-6-14-3h-10l-14 3-12 5-9 6-2-1 12-10 8-5 13-5z" fill="#C79F08"/>
<path transform="translate(815,348)" d="m0 0 4 1-3 1v12l1 18v17l-1 1-14 2-1 8 16-8 16-4 1 1 2 19v5l-9-2-11-2h-18l-10 1 2-2 7-1h20l-1-9-16 4-1-2-2-44v-5l9-6z" fill="#0C4DA1"/>
<path transform="translate(1321,417)" d="m0 0h20l13 4 10 7 7 7 7 14 2 8v16l-4 15-7 13-7 8v-3l6-13 3-14v-11l-2-10-4-9-6-9-7-6-12-6-9-2h-18l-16 5-14 7 4-5 15-10 14-5z" fill="#C79F08"/>
<path transform="translate(1348,343)" d="m0 0 3 1h-2l1 51 5 2 8 2v9l-10-3-14-3h-16l-12 1 4-2 7-1h9v-48z" fill="#0C4DA1"/>
<path transform="translate(917,524)" d="m0 0 2 1-1 41-19 10-61 9h-5l-2-26-2-1 11-7 5-5h3l2 22v7l61-9 5-1z" fill="#123068"/>
<path transform="translate(1054,363)" d="m0 0h10l16 3 12 5 11 7 8 8-1 4-6 7-5-5-9-8-16-8-13-3h-22l-17 4-10 4-7 4-2-1 7-6 14-8 16-5z" fill="#C79F08"/>
<path transform="translate(683,499)" d="m0 0 2 4 22 85-3 3-8 2-1-8-14-52-6-23v-5z" fill="#C79F08"/>
<path transform="translate(1155,354)" d="m0 0h44l3 13 7 38v6h2l-1 4-6 7-3-1-9-49-1-10h-38l1-7z" fill="#C79F08"/>
<path transform="translate(887,346)" d="m0 0 4 1 3 51 1 7-4 4-4 6-2-2-3-53v-6l-26 8-20 6h-2v8h-1v-13l10-4z" fill="#C79F08"/>
<path transform="translate(579,453)" d="m0 0 4 1 14 32-1 4-13 4-4-1-11-24-6 2-11 5-3-1-1-4 2 1v2h2l2-4 3-3h2v-2l5-5 12-5z" fill="#0B4B9E"/>
<path transform="translate(518,381)" d="m0 0 2 1 1 5 11 19 4 7-1 5-4 5-3 3h-4l2 6 13 23-1 2-5-8-11-19-10-16-6-11-2-3v-5l6-5 7-8z" fill="#13316A"/>
<path transform="translate(536,414)" d="m0 0 3 3 15 26 3 7-2 4-10 3v2h-2v5l-4-4-2-7-13-22-1-6h5l3-5 4-4z" fill="#0C4CA0"/>
<path transform="translate(777,456)" d="m0 0v3l-3 9 1 11 5 10 8 7 7 3h17l8-3 5-3-2 4-8 7-13 5h-13l-10-4-8-7-6-12v-10l4-11 6-8z" fill="#C79F08"/>
<path transform="translate(1300,438)" d="m0 0v3l-4 7-1 5v8l4 10 7 8 8 4 3 1h16l9-4 2 1-5 5-10 6-6 2h-14l-12-6-8-9-3-8v-11l7-14z" fill="#C79F08"/>
<path transform="translate(974,784)" d="m0 0h30v8l-1-2-68 3-32 2-14 1v-6l3-1 39-3z" fill="#0F4EA0"/>
<path transform="translate(1203,870)" d="m0 0 4 1-11 7-13 6-17 5-12 2h-23l-17-3v-1l22-5 5-3 4-1h8l-2 3 19-3z" fill="#0E4D9F"/>
<path transform="translate(935,346)" d="m0 0 4 1 15 15 8 7 12 12 3 2-1 4-7 6-18-18-8-7-12-11-1-4z" fill="#C79F08"/>
<path transform="translate(900,478)" d="m0 0 3 1-2 1v70l-8 2-4-1h3v-65z" fill="#C79F08"/>
<path transform="translate(1413,468)" d="m0 0 2 1v9l-2-1-14 79-1 4h-6l-1-2 13-74 2-9z" fill="#C79F08"/>
<path transform="translate(1348,343)" d="m0 0 3 1h-2v28l-2 3h-11l-2-1-1 27-17 2h-5l4-2 7-1h9v-48z" fill="#113067"/>
<path transform="translate(655,410)" d="m0 0h2l1 7 9 30 9 29v2l2 1-8 5-8-25-10-33-2-10z" fill="#C79F08"/>
<path transform="translate(1188,335)" d="m0 0 2 1-1 1-50 1-9 6-3 1 3 5 5 2v8l-3 20-3 1-4-5v-2h-2l-4-5-3-3h2l1-13 2-7 9-6 8-4z" fill="#13316A"/>
<path transform="translate(888,752)" d="m0 0h1v30l16-2 49-3 31-1h19l1 2-1 2-68 3-41 3h-7z" fill="#15509C"/>
<path transform="translate(673,420)" d="m0 0h12l6 4 3 4 1 3v8l-3 9-7 8h-2l-10-33z" fill="#545964"/>
<path transform="translate(1140,765)" d="m0 0 8 1 5 5 2 4-1 8-5 6-2 1h-9l-6-4-2-4v-9l5-6z" fill="#BDC4CD"/>
<path transform="translate(1096,430)" d="m0 0 4 1 8 8 8 7 10 9-2 4-6 5-11-10-8-7-4-3v-2l-4-2-2-3z" fill="#C79F08"/>
<path transform="translate(1193,795)" d="m0 0 35 5 24 4-1 7-1 4-10-1-11-3 1-2h3v-2l-12-1-28-4-2-1 1-5z" fill="#124D9D"/>
<path transform="translate(832,396)" d="m0 0 2 1 2 19v5l-9-2-11-2h-18l-10 1 2-2 7-1h20l-1-9-16 4v-2l9-4 8-4z" fill="#123069"/>
<path transform="translate(1182,452)" d="m0 0 3 1-1 2-2-1-1 12-8 50-1 2-7-1 9-56 7-8z" fill="#C79F08"/>
<path transform="translate(815,348)" d="m0 0 4 1-3 1v23l-9 1-2 1h-4l-1 33h-1l-2-44v-5l9-6z" fill="#123068"/>
<path transform="translate(995,339)" d="m0 0v3l-2 3 12-6 4 1 10 12-3 3-13 7h-3l-6-8-5-6 2-5z" fill="#12316A"/>
<path transform="translate(839,795)" d="m0 0 3 1 1 5-2 1-22 3-30 5h-6l-2-7 13-1 37-6z" fill="#124E9E"/>
<path transform="translate(1073,284)" d="m0 0 4 1 14 19 3 4-1 4-9 4-8-11-9-12 2-4z" fill="#C79F08"/>
<path transform="translate(1030,784)" d="m0 0h31l29 1 1 7-61-2z" fill="#114E9E"/>
<path transform="translate(929,317)" d="m0 0 2 1-6 10-15 29h-1v-37l-3-1 5 1v7l14-8z" fill="#12316A"/>
<path transform="translate(1078,841)" d="m0 0h14l5 2v2l-18 1v3l-4 1 8 1v2l-5 1h-10l-8-2-5-2-4-4 1-3 10-1 1 1h8z" fill="#0C4CA0"/>
<path transform="translate(1023,398)" d="m0 0 2 2-6 9-2 6v15l4 10 6 7 2 2-6 3-4-2-6-9-3-9v-10l4-13 7-9z" fill="#C79F08"/>
<path transform="translate(1037,407)" d="m0 0h13l-2 4-4 7-9 10h-2l-2 4h-2l-1-2v-15l4-6z" fill="#01050C"/>
<path transform="translate(1076,256)" d="m0 0h3v2l-3 1-7 8-10 11-6 7-1-2-5 1-13 13v-3l3-4h2v-2h2l2-4 10-11 7-8 15-8z" fill="#102E65"/>
<path transform="translate(1055,775)" d="m0 0m-26-8h1l1 9h20v-2h3l1 2 25 1 8 1 1 4-39-1-21-1z" fill="#15509E"/>
<path transform="translate(838,784)" d="m0 0h1l1 8-51 8-9 1 1-4 25-5 27-4h5z" fill="#134E9D"/>
<path transform="translate(965,422)" d="m0 0h1l1 25-17-6-2-1 2-4 9-9z" fill="#030C1B"/>
<path transform="translate(1194,788)" d="m0 0 14 1 37 6 7 2 1 4-14-2-45-7z" fill="#124D9C"/>
<path transform="translate(1049,282)" d="m0 0 3 1 1 3-4 5h-2l-2 4-11 12-1 2h-2l-1 3-3-4v-6l16-15z" fill="#0C4B9D"/>
<path transform="translate(675,426)" d="m0 0 7 1 5 5 1 2v15l-3 5-2-2-1-6h-2l-5-16z" fill="#01040A"/>
<path transform="translate(1126,400)" d="m0 0h2l-1 11-3 16-8-6-4-4 2-4 11-11z" fill="#14336D"/>
<path transform="translate(1224,466)" d="m0 0h2l-1 5-14 36h-3l-2-5h2l1-5 10-26z" fill="#C79F08"/>
<path transform="translate(1082,442)" d="m0 0 2 1-8 7-13 6-11 2h-5l2-4 5-6h11l13-4z" fill="#C79F08"/>
<path transform="translate(1442,364)" d="m0 0h2l2 8 6-2 5-3 3 1-2 1-7 28-2-2-4-20z" fill="#123068"/>
<path transform="translate(1349,396)" d="m0 0 14 3v9l-10-3-11-3-1-2z" fill="#14336D"/>
<path transform="translate(720,494)" d="m0 0h1v16l-1-4-6 3-6 1-1 5h-1l-1-8 9-8z" fill="#0C4CA0"/>
<path transform="translate(1044,401)" d="m0 0h8l4 2-4 6-5 4 3-6-17 1 5-5z" fill="#4B5464"/>
<path transform="translate(1218,841)" d="m0 0h9l6 2-1 4-3 3-10-4-3-2v-2z" fill="#0E4D9F"/>
<path transform="translate(829,456)" d="m0 0 3 2-3 9-7 8h-1v-11z" fill="#C79F08"/>
<path transform="translate(1137,338)" d="m0 0 2 1-3 17-2-4-5-2-1-3-2-2z" fill="#0C4DA1"/>
<path transform="translate(881,809)" d="m0 0h41l-1 3-41-1z" fill="#364768"/>
<path transform="translate(1350,443)" d="m0 0 3 1-4 11-6 5-1-2 1-8z" fill="#C79F08"/>
<path transform="translate(1188,335)" d="m0 0 2 1-1 1-50 1-6 4-4-1 9-5z" fill="#082350"/>
<path transform="translate(1073,865)" d="m0 0h16l3 1v2l-13 2-5-1z" fill="#0D4D9F"/>
<path transform="translate(1320,428)" d="m0 0h9l3 2-8 8-8 2 2-4 6-5 2-1-6-1z" fill="#C79F08"/>
<path transform="translate(800,443)" d="m0 0h8l1 3h-2l-2 4h-2v2l-8 2 2-4 5-4 3-1-5-1z" fill="#C79F08"/>
<path transform="translate(518,381)" d="m0 0 2 1-7 8-7 7-1 4-1-1v-5l6-5 7-8z" fill="#0B2757"/>
<path transform="translate(692,444)" d="m0 0 1 2-6 8-4 2-2-6 1-4 3 7 1-3h3l2-5z" fill="#0D2A5C"/>
<path transform="translate(906,319)" d="m0 0 5 1v7h2l-1 5h-3v-12z" fill="#0C285A"/>
<path transform="translate(998,363)" d="m0 0 2 1-9 7-5-3 4-1z" fill="#0C285A"/>
<path transform="translate(827,559)" d="m0 0 2 1-5 5-3 1-2-1v-2z" fill="#0F2C60"/>
<path transform="translate(1065,858)" d="m0 0h6l1 3-2 3-4-2z" fill="#104FA2"/>
</svg>
